<svg width="203" height="268" viewBox="0 0 203 268" fill="none" xmlns="http://www.w3.org/2000/svg">
<path d="M116.282 121.247C116.456 123.143 116.59 126.267 116.436 130.175C116.283 134.083 115.786 138.773 114.887 143.748C113.993 148.715 112.684 153.969 111.214 159.006C109.774 164.05 108.054 168.834 106.432 172.968C98.863 192.07 87.5531 209.682 72.6424 223.213C57.7844 236.673 39.264 246.023 19.689 248.933C16.6334 249.435 12.4795 249.708 9.10443 250.017C8.26237 250.125 7.46308 250.179 6.74629 250.262C6.02947 250.346 5.38709 250.454 4.84021 250.588C3.7675 250.859 3.10903 251.256 3.12587 251.808C3.16389 252.961 4.98277 253.96 8.27863 254.682C11.5714 255.241 16.3671 255.516 22.0234 254.567C35.7442 252.434 48.8817 247.165 60.6248 239.752C72.4052 232.351 82.7404 222.704 91.4216 211.817C104.163 195.855 113.024 176.864 118.372 157.046C121.062 147.148 122.945 136.849 122.906 126.303C122.873 121.044 122.3 115.74 121.079 110.552C119.839 105.398 117.833 100.296 115.017 95.7357C112.505 91.635 109.345 87.9718 105.703 84.876C102.055 81.7886 97.8823 79.2867 93.3145 77.7299C88.7616 76.1481 83.7922 75.7164 78.9811 76.4218C74.1539 77.1169 69.5228 79.2035 65.6404 82.1822C63.7103 83.6902 61.9501 85.3988 60.3686 87.2558C58.7952 89.1181 57.4295 91.1359 56.2107 93.2245C53.8086 97.4357 52.1023 102.01 51.0359 106.706C48.9323 116.104 49.2533 126.174 52.6876 135.365C53.5282 137.524 54.4773 139.557 55.5535 141.545C56.6396 143.516 57.8416 145.423 59.1645 147.257C60.5023 149.066 61.953 150.798 63.5184 152.43C65.1067 154.042 66.8116 155.533 68.6249 156.898C72.2684 159.58 76.4456 161.681 80.8577 162.77C85.2562 163.92 89.8429 164.153 94.2653 163.672C103.167 162.688 111.337 159.118 118.742 154.739C122.449 152.523 126.009 150.087 129.37 147.443L134.348 143.425L136.828 141.404L139.192 139.241C161.177 119.531 177.913 94.0769 188.749 66.3887C191.362 59.8947 194.377 51.9763 196.384 44.5196C196.858 42.9918 197.238 41.1737 197.684 39.2251C198.117 37.2798 198.587 35.197 199.052 33.1226C199.837 28.9384 200.459 24.7302 200.908 21.5978C201.14 18.8681 201.363 16.0406 201.758 13.3919C201.865 12.6315 201.966 11.9012 202.062 11.2146C202.13 10.5209 202.169 9.85548 202.218 9.23052C202.3 7.9703 202.352 6.85265 202.381 5.86924C202.438 3.90243 202.382 2.46226 202.21 1.53523C201.861 -0.310502 201.04 -0.10882 199.7 1.86727C199.107 2.73269 198.466 1.67876 197.924 4.55605C197.897 4.67679 197.855 4.91505 197.838 5.0191C196.005 13.6803 195.305 22.5692 193.638 31.4746C184.571 74.8425 160.483 114.841 126.296 141.521C123.731 143.648 121.044 145.513 118.294 147.315C115.557 149.114 112.736 150.756 109.841 152.166C106.944 153.598 103.983 154.84 100.949 155.735C97.9201 156.622 94.8365 157.302 91.7504 157.462C88.6674 157.636 85.6066 157.398 82.6301 156.718L80.4355 156.089C79.7007 155.885 79.0092 155.57 78.2961 155.311C76.9082 154.69 75.5241 154.025 74.2311 153.189C71.6054 151.582 69.2035 149.543 67.0805 147.221C64.9396 144.911 63.0566 142.316 61.4824 139.538C60.5991 138.031 59.8517 136.426 59.1544 134.83C58.5254 133.231 57.9323 131.609 57.5184 129.929C56.6224 126.571 56.1581 123.086 55.9882 119.536L55.995 119.656C55.9194 115.947 56.3293 112.225 57.1583 108.622C57.9582 105.011 59.2437 101.538 60.8579 98.2969C62.4051 95.2437 64.3783 92.4279 66.6977 90.0402C69.0474 87.6949 71.7389 85.7289 74.7306 84.53C76.21 83.8741 77.7775 83.4815 79.3475 83.1597C80.9379 82.8969 82.5526 82.7992 84.1642 82.8377C87.3936 82.9418 90.6207 83.7235 93.6599 85.0645C99.7614 87.7266 105.002 92.5676 108.807 98.1962C110.717 101.027 112.248 104.064 113.392 107.247C114.546 110.469 115.381 113.799 115.888 117.174C115.988 117.698 116.019 118.339 116.075 119.031C116.18 119.697 116.243 120.451 116.282 121.247Z" fill="white"/>
<path d="M5.92892 260.469C6.41267 260.928 8.21987 262.415 9.40995 263.312C12.1275 265.438 15.2425 267.138 18.6543 267.646C19.1876 267.722 20.0433 268.003 20.6537 265.872C21.2926 263.655 21.2025 262.216 20.4609 262.042C18.6638 261.586 16.6888 261.223 15.2648 259.877C13.2188 257.95 10.9311 256.467 9.12572 254.359C8.81933 254.014 8.52287 253.652 8.23447 253.295L8.04526 253.071L8.00372 253.01L7.9237 252.901C7.8164 252.764 7.69177 252.581 7.76677 252.398C7.82318 252.285 7.94716 252.226 8.06435 252.197C8.11642 252.184 8.18466 252.182 8.23984 252.182L8.32421 252.19C8.34529 252.192 8.34028 252.2 8.36634 252.194L10.3753 251.508C11.5695 251.107 12.7526 250.688 13.8866 250.145C15.8397 249.216 17.5726 247.778 19.4513 246.675C19.894 246.416 20.6151 246.531 21.1049 246.268C21.5148 246.046 22.2068 245.705 22.5484 245.336C22.6978 245.178 22.841 244.993 23.0456 244.985C24.0005 244.95 23.8925 244.122 22.6204 241.94C22.3382 241.46 22.1216 240.758 21.7737 240.502C21.7576 240.491 21.7303 240.462 21.7142 240.452C20.5135 239.329 20.1918 240.263 19.5674 240.509C16.5007 241.741 13.5022 243.12 10.4702 244.442L7.69867 245.701C7.23054 245.909 6.76736 246.108 6.29302 246.289L5.35244 246.656C4.91717 246.827 4.47382 246.993 4.04476 247.191C3.11346 247.598 2.06807 248.048 1.68997 248.946L1.6999 248.929C1.37257 249.331 1.09173 249.785 0.883471 250.285C0.698149 250.765 0.569281 251.281 0.571836 251.801C0.5596 252.795 0.807162 253.782 1.28231 254.741C1.49632 255.223 1.84858 255.678 2.17978 256.131C2.50789 256.571 2.86456 257.075 3.16723 257.463C3.98776 258.459 4.82378 259.373 5.74908 260.136C5.80675 260.207 5.83094 260.372 5.92892 260.469Z" fill="white"/>
</svg>
