<svg width="20" height="20" viewBox="0 0 20 20" fill="none" xmlns="http://www.w3.org/2000/svg">
<path fill-rule="evenodd" clip-rule="evenodd" d="M10.293 3.29279C10.4805 3.10531 10.7348 3 11 3C11.2651 3 11.5194 3.10532 11.707 3.29279L17.707 9.29279C17.8944 9.48031 17.9998 9.73462 17.9998 9.99979C17.9998 10.265 17.8944 10.5193 17.707 10.7068L11.707 16.7068C11.5184 16.8889 11.2658 16.9897 11.0036 16.9875C10.7414 16.9852 10.4906 16.88 10.3052 16.6946C10.1197 16.5092 10.0146 16.2584 10.0123 15.9962C10.01 15.734 10.1108 15.4814 10.293 15.2928L14.586 10.9998L2.99997 10.9998C2.73475 10.9998 2.4804 10.8944 2.29286 10.7069C2.10533 10.5194 1.99997 10.265 1.99997 9.99979C1.99997 9.73457 2.10533 9.48022 2.29286 9.29268C2.4804 9.10514 2.73475 8.99979 2.99997 8.99979L14.586 8.99979L10.293 4.70679C10.1055 4.51926 10.0002 4.26495 10.0002 3.99979C10.0002 3.73462 10.1055 3.48031 10.293 3.29279Z" fill="black"/>
</svg>
