<svg width="45" height="45" viewBox="0 0 45 45" fill="none" xmlns="http://www.w3.org/2000/svg">
<path fill-rule="evenodd" clip-rule="evenodd" d="M22.5 2.8125C18.3974 2.8125 14.4629 4.44224 11.5619 7.34319C8.66099 10.2441 7.03125 14.1787 7.03125 18.2812V21.0938C7.03125 22.5788 7.63594 24.0047 8.27719 25.1044C8.92688 26.2266 9.70875 27.1659 10.2544 27.7144L14.2397 31.6969L15.8625 36.5625H29.1375L30.7603 31.6969L34.7456 27.7144C35.2913 27.1659 36.0731 26.2237 36.7228 25.1044C37.3641 24.0047 37.9688 22.5788 37.9688 21.0938V18.2812C37.9688 14.1787 36.339 10.2441 33.4381 7.34319C30.5371 4.44224 26.6026 2.8125 22.5 2.8125ZM26.3081 15.0581L24.3169 13.0669L19.1053 18.2812L21.9178 21.0938L18.6919 24.3169L20.6831 26.3081L25.8947 21.0938L23.0822 18.2812L26.3081 15.0581Z" fill="#024B5E"/>
<path d="M28.125 42.1875V39.375H16.875V42.1875H28.125Z" fill="#024B5E"/>
</svg>
