<svg width="45" height="46" viewBox="0 0 45 46" fill="none" xmlns="http://www.w3.org/2000/svg">
<rect y="0.5" width="45" height="45" rx="12" fill="#024B5E"/>
<path d="M22.5 24.0851L14.1667 21.7039V13.6268C14.1668 13.1432 14.2791 12.6662 14.4949 12.2334C14.7106 11.8005 15.0239 11.4237 15.41 11.1325C15.7961 10.8413 16.2446 10.6436 16.72 10.5552C17.1955 10.4667 17.685 10.4898 18.15 10.6226L19.1135 10.8143C19.7809 10.9922 20.3716 11.3839 20.7951 11.9295C21.2186 12.4751 21.4516 13.1445 21.4583 13.8351V21.6164L22.5 21.9143L23.5417 21.6164V13.8351C23.545 13.1573 23.7676 12.4987 24.1761 11.9578C24.5847 11.4169 25.1573 11.0227 25.8083 10.8341L26.9281 10.606C27.3827 10.483 27.8595 10.4668 28.3214 10.5586C28.7832 10.6504 29.2176 10.8477 29.5906 11.1351C29.9777 11.4248 30.2917 11.801 30.5075 12.2336C30.7232 12.6662 30.8348 13.1433 30.8333 13.6268V21.7028L22.5 24.0851ZM35 31.3351V16.7518C34.9973 16.1078 34.7957 15.4803 34.4228 14.9552C34.0499 14.4302 33.5239 14.0331 32.9167 13.8185V23.2758L22.5 26.2518L12.0833 23.2758V13.8185C11.4761 14.0331 10.9501 14.4302 10.5772 14.9552C10.2043 15.4803 10.0027 16.1078 10 16.7518V31.3351H21.4583V33.4185H17.2917V35.5018H27.7083V33.4185H23.5417V31.3351H35Z" fill="white"/>
</svg>
