<svg width="45" height="46" viewBox="0 0 45 46" fill="none" xmlns="http://www.w3.org/2000/svg">
<rect y="0.5" width="45" height="45" rx="12" fill="#024B5E"/>
<path d="M33.7146 14.7412C33.334 14.5827 32.9147 14.541 32.5103 14.6215C32.1059 14.702 31.7346 14.9011 31.4438 15.1933L28.75 17.8871L23.9729 13.11C23.5822 12.7194 23.0524 12.5 22.5 12.5C21.9476 12.5 21.4178 12.7194 21.0271 13.11L16.25 17.8871L13.5563 15.1933C13.2649 14.902 12.8937 14.7037 12.4896 14.6233C12.0856 14.543 11.6668 14.5842 11.2861 14.7419C10.9055 14.8995 10.5802 15.1665 10.3512 15.509C10.1223 15.8515 10.0001 16.2542 10 16.6662V27.6933C10.0017 29.0741 10.5509 30.3979 11.5273 31.3743C12.5037 32.3507 13.8275 32.9 15.2083 32.9016H29.7917C31.1725 32.9 32.4963 32.3507 33.4727 31.3743C34.4491 30.3979 34.9983 29.0741 35 27.6933V16.6662C35.0001 16.2542 34.878 15.8514 34.6492 15.5088C34.4204 15.1661 34.0952 14.899 33.7146 14.7412Z" fill="white"/>
</svg>
