<svg width="45" height="46" viewBox="0 0 45 46" fill="none" xmlns="http://www.w3.org/2000/svg">
<rect y="0.5" width="45" height="45" rx="12" fill="#024B5E"/>
<path d="M28.75 10.5H16.25C13.3781 10.5 11.0417 12.8365 11.0417 15.7083V20.9167C11.0417 23.7885 13.3781 26.125 16.25 26.125H19.5L21.4208 27.8312C21.7333 28.0792 22.1062 28.2062 22.4854 28.2062C22.8771 28.2062 23.2771 28.0708 23.6219 27.7937L25.5 26.124H28.75C31.6219 26.124 33.9583 23.7875 33.9583 20.9156V15.7083C33.9583 12.8365 31.6219 10.5 28.75 10.5ZM20.0458 21.9521C19.65 21.9521 19.3062 21.6771 19.2208 21.2896L19.1375 20.9167H16.9L16.799 21.3344C16.7115 21.6969 16.3875 21.9521 16.0146 21.9521C15.4958 21.9521 15.1125 21.4698 15.2281 20.9646L16.3448 16.1062C16.6917 14.2271 19.4615 14.2167 19.7854 16.1479L20.8687 20.9198C20.9885 21.449 20.5865 21.9521 20.0448 21.9521H20.0458ZM23.2292 18.8333H22.8125C22.3521 18.8333 21.9792 18.4604 21.9792 18C21.9792 17.5396 22.3521 17.1667 22.8125 17.1667H23.2292C23.6896 17.1667 24.0625 17.5396 24.0625 18C24.0625 18.4604 23.6896 18.8333 23.2292 18.8333ZM28.9583 20.2917C29.4188 20.2917 29.7917 20.6646 29.7917 21.125C29.7917 21.5854 29.4188 21.9583 28.9583 21.9583H26.4125C25.6615 21.9583 25.0521 21.349 25.0521 20.5979C25.0521 20.3208 25.1375 20.05 25.2958 19.8219L27.7219 16.3333H25.8854C25.425 16.3333 25.0521 15.9604 25.0521 15.5C25.0521 15.0396 25.425 14.6667 25.8854 14.6667H28.4312C29.1823 14.6667 29.7917 15.276 29.7917 16.0271C29.7917 16.3042 29.7062 16.576 29.5479 16.8031L27.1219 20.2927H28.9583V20.2917ZM18.1604 16.5177L18.7677 19.251H17.3021L17.975 16.4615C17.9948 16.3906 18.0271 16.3344 18.076 16.3344C18.0906 16.3448 18.1344 16.4 18.1604 16.5177ZM32.9167 30.2917H27.5927C24.699 30.2917 23.174 31.6812 22.4427 33.1542C21.7115 31.6812 20.1865 30.2917 17.2927 30.2917H12.0833C10.9323 30.2917 10 31.224 10 32.375V34.4583C10 35.0333 10.4667 35.5 11.0417 35.5H33.9583C34.5333 35.5 35 35.0333 35 34.4583V32.375C35 31.224 34.0677 30.2917 32.9167 30.2917Z" fill="white"/>
</svg>
