<svg width="65" height="59" viewBox="0 0 65 59" fill="none" xmlns="http://www.w3.org/2000/svg">
<path fill-rule="evenodd" clip-rule="evenodd" d="M34.6515 20.7207C34.597 20.2715 35.9294 18.555 36.1738 17.7324C36.6959 16.9045 36.8804 15.5852 36.3118 14.709C36.0859 14.3609 36.1826 14.0594 36.1826 13.5787C36.1826 8.80799 27.8242 8.80623 27.8242 13.5787C27.8242 14.1807 27.9622 14.3231 27.637 14.7995C27.0894 15.5914 27.3707 16.9985 27.833 17.735C28.1292 18.5999 29.5266 20.2337 29.4299 20.7224C29.3421 23.171 34.6665 23.0902 34.6515 20.7207ZM20.0635 43.7155V29.8507H26.3002C28.9439 30.3245 31.5868 31.7588 34.2314 33.4226H39.075C41.2679 33.5536 42.4175 35.7763 40.2844 37.2379C38.5873 38.4842 36.3452 38.413 34.0468 38.2065C32.4622 38.1274 32.3945 40.257 34.0468 40.264C34.6216 40.3097 35.2448 40.1743 35.7888 40.1743C38.6584 40.1699 41.0165 39.6224 42.4623 37.3575L43.1874 35.6647L50.3927 32.0928C53.998 30.9063 56.5591 34.6768 53.9048 37.3012C48.6841 41.0981 43.3333 44.2226 37.8578 46.7459C33.8825 49.1638 29.9054 49.0812 25.9319 46.7459L20.0635 43.7155ZM10 28.5183H18.1852V45.1085H10V28.5183ZM44.2439 25.5256H44.4803C44.6921 25.5256 44.867 25.3507 44.867 25.138V24.5123C44.867 24.3004 44.6921 24.1255 44.4803 24.1255H43.0802C42.8684 24.1255 42.6935 24.3004 42.6935 24.5123V25.138C42.6935 25.3507 42.8684 25.5256 43.0802 25.5256H43.3202L42.8605 27.8582H44.6851L44.2439 25.5256ZM41.7953 22.1208C41.8392 21.7604 40.7678 20.3805 40.5718 19.7196C40.1517 19.0534 40.0032 17.9934 40.4602 17.2885C40.6421 17.009 40.5648 16.7665 40.5648 16.3798C40.5648 12.546 47.2831 12.5442 47.2831 16.3798C47.2831 16.864 47.1724 16.9783 47.4334 17.3615C47.8729 17.9978 47.6479 19.129 47.2761 19.7213C47.0379 20.4166 45.9138 21.7288 45.992 22.1225C46.0632 24.0913 41.783 24.0253 41.7953 22.1208ZM47.0107 23.2704C47.836 23.7986 49.0075 24.2319 49.9436 24.5448C51.7831 25.1565 51.7779 25.2426 51.7647 27.8582H45.2661L47.0107 23.2704ZM31.6044 24.9561H31.3108C31.0471 24.9561 30.8309 24.7381 30.8309 24.4745V23.6958C30.8309 23.4312 31.0471 23.2141 31.3108 23.2141H33.0519C33.3165 23.2141 33.5336 23.4312 33.5336 23.6958V24.4745C33.5336 24.7381 33.3165 24.9561 33.0519 24.9561H32.7548L33.3253 27.8582H31.0559L31.6044 24.9561ZM41.645 27.8582C41.4191 24.9306 41.9921 25.0572 39.5417 24.1405C38.3183 23.6826 37.2311 23.1016 36.1087 22.3994L34.0055 27.8582H41.645ZM28.1634 22.1506C27.1351 22.8072 26.1543 23.3477 24.9888 23.7362C22.7011 24.4973 22.7081 24.6037 22.723 27.8582H30.3335L28.1634 22.1506Z" fill="#024B5E"/>
</svg>
