<svg width="45" height="45" viewBox="0 0 45 45" fill="none" xmlns="http://www.w3.org/2000/svg">
<path d="M36.9 0.900391H8.1C6.12 0.900391 4.5 2.52039 4.5 4.50039V40.5004C4.5 42.4804 6.12 44.1004 8.1 44.1004H36.9C38.88 44.1004 40.5 42.4804 40.5 40.5004V4.50039C40.5 2.52039 38.88 0.900391 36.9 0.900391ZM15.3 36.9004C15.3 37.8904 14.49 38.7004 13.5 38.7004H9.9C8.91 38.7004 8.1 37.8904 8.1 36.9004V36.0004C8.1 35.0104 8.91 34.2004 9.9 34.2004H13.5C14.49 34.2004 15.3 35.0104 15.3 36.0004V36.9004ZM15.3 29.7004C15.3 30.6904 14.49 31.5004 13.5 31.5004H9.9C8.91 31.5004 8.1 30.6904 8.1 29.7004V28.8004C8.1 27.8104 8.91 27.0004 9.9 27.0004H13.5C14.49 27.0004 15.3 27.8104 15.3 28.8004V29.7004ZM15.3 22.5004C15.3 23.4904 14.49 24.3004 13.5 24.3004H9.9C8.91 24.3004 8.1 23.4904 8.1 22.5004V21.6004C8.1 20.6104 8.91 19.8004 9.9 19.8004H13.5C14.49 19.8004 15.3 20.6104 15.3 21.6004V22.5004ZM26.1 36.9004C26.1 37.8904 25.29 38.7004 24.3 38.7004H20.7C19.71 38.7004 18.9 37.8904 18.9 36.9004V36.0004C18.9 35.0104 19.71 34.2004 20.7 34.2004H24.3C25.29 34.2004 26.1 35.0104 26.1 36.0004V36.9004ZM26.1 29.7004C26.1 30.6904 25.29 31.5004 24.3 31.5004H20.7C19.71 31.5004 18.9 30.6904 18.9 29.7004V28.8004C18.9 27.8104 19.71 27.0004 20.7 27.0004H24.3C25.29 27.0004 26.1 27.8104 26.1 28.8004V29.7004ZM26.1 22.5004C26.1 23.4904 25.29 24.3004 24.3 24.3004H20.7C19.71 24.3004 18.9 23.4904 18.9 22.5004V21.6004C18.9 20.6104 19.71 19.8004 20.7 19.8004H24.3C25.29 19.8004 26.1 20.6104 26.1 21.6004V22.5004ZM36.9 36.9004C36.9 37.8904 36.09 38.7004 35.1 38.7004H31.5C30.51 38.7004 29.7 37.8904 29.7 36.9004V36.0004C29.7 35.0104 30.51 34.2004 31.5 34.2004H35.1C36.09 34.2004 36.9 35.0104 36.9 36.0004V36.9004ZM36.9 29.7004C36.9 30.6904 36.09 31.5004 35.1 31.5004H31.5C30.51 31.5004 29.7 30.6904 29.7 29.7004V28.8004C29.7 27.8104 30.51 27.0004 31.5 27.0004H35.1C36.09 27.0004 36.9 27.8104 36.9 28.8004V29.7004ZM36.9 22.5004C36.9 23.4904 36.09 24.3004 35.1 24.3004H31.5C30.51 24.3004 29.7 23.4904 29.7 22.5004V21.6004C29.7 20.6104 30.51 19.8004 31.5 19.8004H35.1C36.09 19.8004 36.9 20.6104 36.9 21.6004V22.5004ZM36.9 14.4004C36.9 15.3904 36.09 16.2004 35.1 16.2004H9.9C8.91 16.2004 8.1 15.3904 8.1 14.4004V7.20039C8.1 6.21039 8.91 5.40039 9.9 5.40039H35.1C36.09 5.40039 36.9 6.21039 36.9 7.20039V14.4004Z" fill="#024B5E"/>
</svg>
