<svg width="45" height="46" viewBox="0 0 45 46" fill="none" xmlns="http://www.w3.org/2000/svg">
<rect y="0.5" width="45" height="45" rx="12" fill="#024B5E"/>
<path d="M12.1739 18.7391C12.1739 17.238 13.3902 16.0217 14.8913 16.0217C16.3924 16.0217 17.6087 17.238 17.6087 18.7391C17.6087 20.2402 16.3924 21.4565 14.8913 21.4565C13.3902 21.4565 12.1739 20.2402 12.1739 18.7391ZM22.5 18.1957C24.0011 18.1957 25.2174 16.9793 25.2174 15.4783C25.2174 13.9772 24.0011 12.7609 22.5 12.7609C20.9989 12.7609 19.7826 13.9772 19.7826 15.4783C19.7826 16.9793 20.9989 18.1957 22.5 18.1957ZM30.1087 14.9348C31.6098 14.9348 32.8261 13.7185 32.8261 12.2174C32.8261 10.7163 31.6098 9.5 30.1087 9.5C28.6076 9.5 27.3913 10.7163 27.3913 12.2174C27.3913 13.7185 28.6076 14.9348 30.1087 14.9348ZM30.6522 16.0217H29.5652C27.1674 16.0217 25.2174 17.9717 25.2174 20.3696V24.7174C25.2174 26.3196 26.0978 27.7065 27.3913 28.4609V34.5C27.3913 35.1 27.8783 35.587 28.4783 35.587C29.0783 35.587 29.5652 35.1 29.5652 34.5V29.0652H30.6522V34.5C30.6522 35.1 31.1391 35.587 31.7391 35.587C32.3391 35.587 32.8261 35.1 32.8261 34.5V28.4609C34.1196 27.7065 35 26.3196 35 24.7174V20.3696C35 17.9717 33.05 16.0217 30.6522 16.0217ZM23.0435 24.7174V20.3696C23.0435 20.0022 23.0815 19.6435 23.1402 19.2924C23.1076 19.2924 23.0772 19.2826 23.0435 19.2826H21.9565C19.5587 19.2826 17.6087 21.2326 17.6087 23.6304V25.8043C17.6087 27.4065 18.4891 28.7935 19.7826 29.5478V34.5C19.7826 35.1 20.2696 35.587 20.8696 35.587C21.4696 35.587 21.9565 35.1 21.9565 34.5V30.1522H23.0435C23.838 30.1522 24.5728 29.9228 25.2141 29.5489C23.8511 28.3239 23.0435 26.5674 23.0435 24.7174ZM15.4348 25.8043V23.6304C15.4348 23.2598 15.4728 22.8978 15.5326 22.5435H13.8043C11.7065 22.5435 10 24.25 10 26.3478V27.4348C10 28.9467 10.8935 30.2446 12.1739 30.8576V34.5C12.1739 35.1 12.6609 35.587 13.2609 35.587C13.8609 35.587 14.3478 35.1 14.3478 34.5V31.2391H15.9783C16.6217 31.2391 17.2185 31.063 17.75 30.7804C16.3359 29.5826 15.4348 27.7978 15.4348 25.8043Z" fill="white"/>
</svg>
