<svg width="46" height="45" viewBox="0 0 46 45" fill="none" xmlns="http://www.w3.org/2000/svg">
<path d="M19.25 30V28.125H6.14375L6.125 35.625C6.125 37.7062 7.79375 39.375 9.875 39.375H36.125C38.2062 39.375 39.875 37.7062 39.875 35.625V28.125H26.75V30H19.25ZM38 13.125H30.4812V9.375L26.7312 5.625H19.2312L15.4812 9.375V13.125H8C5.9375 13.125 4.25 14.8125 4.25 16.875V22.5C4.25 24.5812 5.91875 26.25 8 26.25H19.25V22.5H26.75V26.25H38C40.0625 26.25 41.75 24.5625 41.75 22.5V16.875C41.75 14.8125 40.0625 13.125 38 13.125ZM26.75 13.125H19.25V9.375H26.75V13.125Z" fill="#024B5E"/>
</svg>
