<svg width="243" height="15" viewBox="0 0 243 15" fill="none" xmlns="http://www.w3.org/2000/svg">
<path d="M242.986 9.06958C242.923 8.25725 242.778 7.57058 242.581 7.15708C242.533 7.05479 242.482 6.96981 242.429 6.90322C242.387 6.83791 242.343 6.78691 242.298 6.75088L242.137 6.63242L241.898 6.49702C240.779 6.10775 239.759 6.02314 238.694 5.87082L235.548 5.56616L229.194 5.21076L213.231 4.7707L216.152 4.44912H216.687C219.995 4.11063 218.831 3.48443 219.833 2.99361C224.408 0.793401 220.794 0.116408 207.115 0.488751C204.135 0.488751 200.98 0.488751 197.942 0.488751L171.936 0.387207L146.059 0.759552L96.1126 0.556451L71.1438 0.454907H58.6325C54.4755 0.454907 50.3096 0.454905 46.1436 0.624152C41.32 0.793399 36.4965 1.03599 31.6729 1.35191L24.433 1.92736L20.8064 2.36739L19.9076 2.51972L19.4582 2.62127L19.2065 2.70589H19.0627H18.9548L18.838 2.82437C19.0447 3.806 18.1639 0.488744 18.4785 8.07101C18.802 9.06956 18.8694 8.86647 18.8964 8.9511H18.9863H19.0896H19.2335H19.4806H19.93H20.8288C25.6914 9.23882 30.491 9.20498 35.322 9.25576H40.6205C34.3288 9.32345 28.0372 9.42499 21.7456 9.56039C15.2428 9.71271 9.87242 10.2035 6.09295 10.9144C2.31349 11.6252 0.133889 12.5053 0.0035624 13.5038C-0.243608 15.4671 12.4295 14.807 19.8806 14.7224C43.7288 14.2485 67.6025 14.1357 91.5017 14.3839L163.217 14.7563C183.89 14.8748 216.116 14.7563 225.235 14.4686L230.178 14.2824C232.227 14.2824 234.295 14.2824 236.375 14.0624C237.415 13.9834 238.463 13.8593 239.521 13.69C240.047 13.69 240.573 13.5208 241.107 13.3684C241.377 13.3684 241.638 13.233 241.934 13.0976C241.997 13.0976 242.092 13.013 242.182 12.9622H242.244H242.28L242.384 12.8607C242.449 12.7767 242.512 12.6749 242.573 12.5561L242.662 12.3699C242.743 12.0822 243.071 11.9806 242.986 9.06958ZM116.187 9.4927C105.743 9.5604 95.2677 9.5604 84.7607 9.4927H107.68H121.773H116.187Z" fill="#024B5E"/>
</svg>
